Coordinates
version=1
nRows=15
nColumns=42
inDegrees=yes

Units are S.I. units (second, meters, Newtons, ...)
If the header above contains a line with 'inDegrees', this indicates whether rotational values are in degrees (yes) or radians (no).

endheader
time	pelvis_tilt	pelvis_list	pelvis_rotation	pelvis_tx	pelvis_ty	pelvis_tz	hip_flexion_r	hip_adduction_r	hip_rotation_r	knee_angle_r	knee_adduction_r	knee_angle_r_beta	ankle_angle_r	subtalar_angle_r	mtp_angle_r	hip_flexion_l	hip_adduction_l	hip_rotation_l	knee_angle_l	knee_adduction_l	knee_angle_l_beta	ankle_angle_l	subtalar_angle_l	mtp_angle_l	lumbar_extension	lumbar_bending	lumbar_rotation	arm_flex_r	arm_add_r	arm_rot_r	elbow_flex_r	pro_sup_r	wrist_flex_r	wrist_dev_r	arm_flex_l	arm_add_l	arm_rot_l	elbow_flex_l	pro_sup_l	wrist_flex_l	wrist_dev_l
      1.25000000	     20.16523978	      0.07140047	     -6.82401760	      0.41621887	      1.00417518	     -0.09268106	     -5.02399938	     -1.25510519	     -3.99108186	     64.16112800	     -4.56300890	      1.11982294	      6.30643112	     -9.29441768	     -7.52591926	    -10.27408789	      5.67516376	    -23.15484279	     21.68726961	     -7.36307009	      0.37851426	     12.40478493	     24.05126193	     -7.52591926	    -41.95941470	     -1.90452530	      4.34511221	      2.36120420	    -18.96339225	     -4.28833306	     67.43591072	     90.00000001	      0.00000000	      0.00000000	      0.67260291	    -18.14800904	     -2.05704894	     56.64737436	     90.00000001	      0.00000000	      0.00000000
      1.26000000	     20.26279524	      0.02636227	     -6.54810522	      0.42930520	      1.00504478	     -0.09268008	     -3.77560864	     -1.07748463	     -3.94591353	     62.71641065	     -4.32907428	      1.09460786	      6.82704699	     -9.59511255	     -7.52540355	    -11.74940990	      5.66979315	    -23.46492741	     20.63261593	     -7.21641108	      0.36010708	     12.80625445	     25.34357580	     -7.52540355	    -42.03485654	     -1.65142449	      4.18229286	      2.07348653	    -19.05457259	     -4.60576420	     67.46351923	     90.00000001	      0.00000000	      0.00000000	      1.21189813	    -18.38708633	     -2.06169773	     57.55310592	     90.00000001	      0.00000000	      0.00000000
      1.27000000	     20.41767340	     -0.02449561	     -6.26387568	      0.44238286	      1.00559358	     -0.09254066	     -2.67570259	     -0.88538586	     -3.76252369	     61.03113135	     -3.98456442	      1.06519419	      7.11609617	    -10.02465683	     -7.52481264	    -13.24456028	      5.59776928	    -23.94208731	     19.69197886	     -7.06749577	      0.34368987	     13.30705053	     26.96331752	     -7.52481264	    -42.17387516	     -1.43769468	      4.02802416	      1.78080741	    -19.08470610	     -5.02175339	     67.56881748	     90.00000001	      0.00000000	      0.00000000	      1.74377177	    -18.70918578	     -1.98876437	     58.63642391	     90.00000001	      0.00000000	      0.00000000
      1.28000000	     20.46485779	     -0.09665576	     -6.00882470	      0.45542027	      1.00558823	     -0.09219409	     -1.50174425	     -0.62854524	     -3.35120316	     59.20468673	     -3.51516858	      1.03331672	      6.90380640	    -11.04709743	     -7.52343411	    -14.38630608	      5.34090491	    -25.44384932	     19.16827814	     -7.16572952	      0.33454957	     13.88388385	     29.89164200	     -7.52343411	    -42.21771594	     -1.24455213	      3.89962274	      1.40518988	    -18.90122151	     -5.69183811	     67.93234807	     90.00000001	      0.00000000	      0.00000000	      2.16156637	    -19.25052933	     -1.57475514	     60.03726984	     90.00000001	      0.00000000	      0.00000000
      1.29000000	     20.56420223	     -0.06677037	     -5.73960093	      0.46842704	      1.00538003	     -0.09191677	     -0.44292248	     -0.54645138	     -3.17657155	     57.19275696	     -3.20186401	      0.99820192	      7.14123266	    -11.30912351	     -7.52277537	    -15.77887106	      5.36759825	    -25.46078045	     18.34526937	     -6.91276322	      0.32018535	     14.44424179	     30.56267304	     -7.52277537	    -42.29007501	     -1.13062630	      3.73940217	      1.17051042	    -18.95812647	     -5.94499367	     67.85173526	     90.00000001	      0.00000000	      0.00000000	      2.90923514	    -19.51644974	     -1.49139175	     60.67700777	     90.00000001	      0.00000000	      0.00000000
      1.30000000	     20.65605391	     -0.05503344	     -5.50449527	      0.48144307	      1.00478812	     -0.09146559	      0.56540580	     -0.42700721	     -3.00036713	     55.02395302	     -2.95148950	      0.96034915	      7.12833614	    -11.75488061	     -7.52188494	    -17.10817624	      5.33028048	    -25.72026547	     17.65262589	     -6.70886304	      0.30809644	     14.98952976	     31.49849849	     -7.52188494	    -42.36648930	     -1.04015852	      3.62820249	      0.88798130	    -18.88871881	     -6.43757234	     67.97871879	     90.00000001	      0.00000000	      0.00000000	      3.54410554	    -19.92565874	     -1.15479064	     61.66295406	     90.00000001	      0.00000000	      0.00000000
      1.31000000	     20.64305936	     -0.00041108	     -5.27796507	      0.49442778	      1.00378218	     -0.09091386	      1.64721624	     -0.35729491	     -2.98992164	     52.72749433	     -2.85230212	      0.92026838	      7.28844203	    -11.71669590	     -7.52145722	    -18.29320442	      5.35568793	    -25.64262696	     17.02864305	     -6.49673196	      0.29720589	     15.54105971	     31.79984213	     -7.52145722	    -42.30631831	     -1.01898343	      3.50825200	      0.61293738	    -18.88444686	     -6.67363652	     67.88931266	     90.00000001	      0.00000000	      0.00000000	      4.36150693	    -20.17393287	     -1.02215215	     62.33880990	     90.00000001	      0.00000000	      0.00000000
      1.32000000	     20.77533890	      0.07249662	     -5.01760697	      0.50738985	      1.00258064	     -0.09031808	      2.50264229	     -0.34375571	     -3.26831807	     50.27009164	     -2.92700273	      0.87737861	      7.24053784	    -11.60753651	     -7.52019801	    -19.54907807	      5.30232693	    -26.00336265	     16.57235099	     -6.31703262	      0.28924209	     16.18359696	     32.90161120	     -7.52019801	    -42.46199574	     -1.00540756	      3.41080270	      0.26761422	    -18.67001993	     -7.47685339	     68.12684568	     90.00000001	      0.00000000	      0.00000000	      5.09684232	    -20.76874220	     -0.18725047	     63.39481919	     90.00000001	      0.00000000	      0.00000000
      1.33000000	     20.82788692	      0.17221470	     -4.78199484	      0.52033765	      1.00104393	     -0.08964135	      3.39409087	     -0.36919151	     -3.75570742	     47.68346132	     -3.15087281	      0.83223340	      7.31194872	    -11.00730438	     -7.51961211	    -20.72733255	      5.33868050	    -25.86568391	     16.10721356	     -6.11760417	      0.28112391	     16.83547533	     33.12034248	     -7.51961211	    -42.49950923	     -1.03498192	      3.25494278	      0.05597787	    -18.58194775	     -7.77001905	     68.06845406	     90.00000001	      0.00000000	      0.00000000	      5.95662423	    -21.08627563	      0.07811066	     64.00136209	     90.00000001	      0.00000000	      0.00000000
      1.34000000	     20.87463445	      0.29218082	     -4.54271344	      0.53329942	      0.99924722	     -0.08886905	      4.24152736	     -0.42359956	     -4.60826806	     44.97365021	     -3.61138503	      0.78493827	      7.30565405	     -9.93560232	     -7.51908168	    -21.85537800	      5.34885692	    -25.70181324	     15.77158884	     -5.89613693	      0.27526615	     17.52834486	     33.39279742	     -7.51908168	    -42.54637015	     -1.10351907	      3.11038310	     -0.19515148	    -18.44385408	     -8.16116565	     68.04061478	     90.00000001	      0.00000000	      0.00000000	      6.84474926	    -21.44506187	      0.52147068	     64.67692598	     90.00000001	      0.00000000	      0.00000000
      1.35000000	     20.89159134	      0.44649736	     -4.26035607	      0.54623495	      0.99719942	     -0.08810783	      5.08309062	     -0.54247035	     -5.97709793	     42.16439541	     -4.31776741	      0.73590753	      7.29782987	     -8.07011853	     -7.51851260	    -22.87700618	      5.36047952	    -25.53405761	     15.53953855	     -5.73870143	      0.27121611	     18.25574849	     33.67949615	     -7.51851260	    -42.58677267	     -1.17789339	      2.92219850	     -0.46771702	    -18.26910499	     -8.65309066	     68.03342437	     90.00000001	      0.00000000	      0.00000000	      7.76641732	    -21.84401365	      1.16959219	     65.32295130	     90.00000001	      0.00000000	      0.00000000
      1.36000000	     20.84454498	      0.74638349	     -3.98731820	      0.55936593	      0.99468394	     -0.08740015	      6.08368544	     -0.96083820	     -8.65842976	     39.44404650	     -5.62665723	      0.68842848	      8.41094616	     -2.94683579	     -7.51707031	    -23.70779512	      5.52167242	    -25.55654489	     15.52061112	     -5.77935900	      0.27088577	     18.85087224	     34.22424426	     -7.51707031	    -42.48606859	     -1.37600821	      2.77041542	     -0.88902423	    -17.92771360	     -9.49292261	     68.21843124	     90.00000001	      0.00000000	      0.00000000	      8.77556532	    -22.47160956	      2.49457132	     65.89645032	     90.00000001	      0.00000000	      0.00000000
      1.37000000	     20.79287218	      1.02011251	     -3.68009449	      0.57244055	      0.99214107	     -0.08664993	      6.99486841	     -1.33813075	    -11.23887380	     36.61986442	     -6.67537036	      0.63913721	      8.61667268	      1.21906015	     -7.51592252	    -24.53681734	      5.62919681	    -25.25603992	     15.52031488	     -5.73115580	      0.27088060	     19.53786383	     34.37544365	     -7.51592252	    -42.42572585	     -1.53633653	      2.51838027	     -1.16234347	    -17.70998736	     -9.92659987	     68.17858183	     90.00000001	      0.00000000	      0.00000000	      9.75061495	    -22.85524766	      3.25367495	     66.37536778	     90.00000001	      0.00000000	      0.00000000
      1.38000000	     20.74706438	      1.33535170	     -3.36440441	      0.58560595	      0.98947806	     -0.08588134	      7.88072336	     -1.83071548	    -14.23844430	     33.84109558	     -7.69365767	      0.59063854	      8.71786804	      6.20824070	     -7.51472645	    -25.33864695	      5.76608341	    -24.93574436	     15.58314098	     -5.72628173	      0.27197712	     20.20200333	     34.50900377	     -7.51472645	    -42.36231525	     -1.73243203	      2.25124016	     -1.47202182	    -17.46750491	    -10.35620637	     68.12112605	     90.00000001	      0.00000000	      0.00000000	     10.75647018	    -23.23077148	      4.07450637	     66.75418204	     90.00000001	      0.00000000	      0.00000000
      1.39000000	     20.65043561	      1.66259828	     -3.00509768	      0.59884295	      0.98673793	     -0.08514206	      8.77179777	     -2.39207087	    -17.44578929	     31.13792813	     -8.52622397	      0.54345937	      8.53111089	     11.42814339	     -7.51362642	    -26.04909411	      5.87777475	    -24.49884865	     15.73971489	     -5.73962360	      0.27470985	     20.81760675	     34.57114606	     -7.51362642	    -42.26173431	     -1.90592297	      1.95508582	     -1.75890403	    -17.21623398	    -10.77426727	     68.03881259	     90.00000001	      0.00000000	      0.00000000	     11.74274832	    -23.57123114	      4.96123796	     67.09149135	     90.00000001	      0.00000000	      0.00000000
